<?xml version="1.0" standalone="no"?>
<!DOCTYPE svg PUBLIC "-//W3C//DTD SVG 20010904//EN"
 "http://www.w3.org/TR/2001/REC-SVG-20010904/DTD/svg10.dtd">
<svg version="1.0" xmlns="http://www.w3.org/2000/svg"
 width="512.000000pt" height="512.000000pt" viewBox="0 0 512.000000 512.000000"
 preserveAspectRatio="xMidYMid meet">

<g transform="translate(0.000000,512.000000) scale(0.100000,-0.100000)"
fill="#000000" stroke="none">
<path d="M1340 5109 c-356 -42 -643 -181 -896 -433 -224 -224 -353 -466 -416
-779 l-23 -112 0 -1225 0 -1225 23 -112 c63 -313 192 -555 416 -779 181 -180
352 -287 585 -364 234 -78 177 -75 1531 -75 1354 0 1297 -3 1531 75 233 77
404 184 585 364 224 224 353 466 416 779 l23 112 0 1225 0 1225 -23 112 c-63
313 -192 555 -416 779 -181 180 -352 287 -585 364 -236 78 -163 74 -1491 76
-652 1 -1219 -2 -1260 -7z m1500 -825 c411 -65 781 -272 1039 -580 496 -594
544 -1445 119 -2078 -390 -579 -1143 -878 -1813 -720 -60 15 -123 28 -140 31
-16 3 -120 -13 -230 -36 -422 -84 -477 -93 -550 -89 -125 8 -217 67 -266 172
-16 33 -31 79 -35 103 -4 25 7 183 26 377 l33 334 -50 123 c-97 236 -127 390
-127 654 0 302 45 500 175 770 187 389 491 676 884 832 185 74 331 108 545
127 77 7 291 -4 390 -20z"/>
<path d="M2414 4090 c-189 -21 -335 -64 -509 -149 -154 -76 -284 -170 -410
-296 -397 -396 -535 -939 -378 -1485 13 -47 49 -136 79 -199 l55 -115 -37
-373 c-34 -349 -36 -374 -20 -398 9 -13 29 -31 45 -40 31 -16 101 -4 624 100
l188 38 82 -26 c155 -51 227 -61 442 -61 219 -1 283 8 458 66 575 189 984 710
1037 1321 37 433 -121 858 -436 1172 -125 125 -254 218 -409 295 -140 69 -236
102 -381 130 -119 23 -325 33 -430 20z m555 -796 c31 -39 29 -117 -4 -149
l-24 -25 -406 0 -406 0 -24 25 c-33 32 -36 120 -5 153 21 22 22 22 435 22
l414 0 20 -26z m292 -491 c33 -20 42 -42 37 -98 -2 -28 -10 -44 -31 -59 -28
-21 -33 -21 -727 -21 -694 0 -699 0 -727 21 -24 18 -28 29 -31 76 -3 53 -1 56
30 77 33 21 38 21 726 21 642 0 696 -1 723 -17z m-10 -490 c33 -20 42 -42 37
-98 -2 -28 -10 -44 -31 -59 -28 -21 -33 -21 -727 -21 -694 0 -699 0 -727 21
-24 18 -28 29 -31 76 -3 53 -1 56 30 77 33 21 38 21 726 21 642 0 696 -1 723
-17z"/>
</g>
</svg>
